<svg width="83" height="24" viewBox="0 0 83 24" fill="none" xmlns="http://www.w3.org/2000/svg">
<path d="M7.36655 0.201559C10.7272 0.201559 13.3074 0.797809 15.107 1.99031C16.9066 3.16113 17.8063 5.09081 17.8063 7.77936C17.8063 10.4896 16.8957 12.4518 15.0744 13.666C13.2532 14.8585 10.6513 15.4547 7.26898 15.4547H5.67537V23H0.601819V0.786968C1.70759 0.57015 2.87841 0.418377 4.11428 0.33165C5.35014 0.244922 6.43423 0.201559 7.36655 0.201559ZM7.69178 4.52708C7.32319 4.52708 6.95459 4.53792 6.586 4.55961C6.23909 4.58129 5.93555 4.60297 5.67537 4.62465V11.1292H7.26898C9.02521 11.1292 10.3478 10.8907 11.2368 10.4137C12.1257 9.9367 12.5702 9.04774 12.5702 7.74683C12.5702 7.11806 12.4509 6.5977 12.2124 6.18574C11.9956 5.77379 11.6704 5.44856 11.2368 5.21006C10.8248 4.94988 10.3153 4.77642 9.70819 4.6897C9.1011 4.58129 8.42896 4.52708 7.69178 4.52708ZM21.532 23V0.461741H36.6225V4.72222H26.6055V9.43802H35.5168V13.6985H26.6055V23H21.532ZM39.8819 23V0.234081H43.9798V23H39.8819ZM55.8709 23.4553C54.2665 23.4553 52.8463 23.1193 51.6104 22.4471C50.3962 21.7533 49.4422 20.7885 48.7484 19.5526C48.0763 18.295 47.7402 16.8207 47.7402 15.1295V14.7392C47.7402 13.048 48.0763 11.5845 48.7484 10.3487C49.4206 9.09111 50.3637 8.12627 51.5779 7.45413C52.7921 6.76031 54.2014 6.4134 55.8059 6.4134C57.3886 6.4134 58.7654 6.77115 59.9363 7.48665C61.1071 8.18047 62.0177 9.15615 62.6682 10.4137C63.3186 11.6496 63.6438 13.0914 63.6438 14.7392V16.1377H51.9031C51.9465 17.2435 52.3585 18.1433 53.139 18.8371C53.9195 19.5309 54.8735 19.8778 56.001 19.8778C57.1501 19.8778 57.9957 19.6285 58.5378 19.1298C59.0798 18.6311 59.4918 18.0782 59.7736 17.4711L63.1235 19.2274C62.8199 19.7911 62.3755 20.409 61.79 21.0812C61.2263 21.7316 60.4675 22.2953 59.5135 22.7723C58.5595 23.2277 57.3453 23.4553 55.8709 23.4553ZM51.9357 13.0806H59.4809C59.3942 12.1482 59.0148 11.4002 58.3426 10.8365C57.6922 10.2728 56.8358 9.9909 55.7733 9.9909C54.6676 9.9909 53.7895 10.2728 53.139 10.8365C52.4885 11.4002 52.0874 12.1482 51.9357 13.0806ZM78.2514 6.86872H82.772L78.8693 14.4465V15.0319L82.9997 23H78.2839L75.2593 16.6906H74.6739L71.6493 23H66.9335L71.0639 15.0319V14.4465L67.1286 6.86872H71.6818L74.6739 12.7879H75.2593L78.2514 6.86872Z" fill="#4F46E5"/>
</svg>
