<svg width="19" height="21" viewBox="0 0 19 21" fill="none" xmlns="http://www.w3.org/2000/svg">
<g id="Group">
<path id="Vector" d="M6.14648 9.3335L8.22998 11.4165L12.3965 7.25" stroke="#4F46E5" stroke-width="2" stroke-linecap="round" stroke-linejoin="round"/>
<path id="Vector_2" d="M9.27147 19.75L10.188 19.354C12.1096 18.5294 13.769 17.1947 14.9864 15.4945C16.2038 13.7943 16.9328 11.7934 17.0945 9.7085L17.5425 3.9585C17.5498 3.72037 17.4751 3.48696 17.3309 3.29729C17.1868 3.10762 16.9819 2.9732 16.7505 2.9165L9.27147 1L1.79247 2.875C1.56117 2.93168 1.35632 3.06603 1.21217 3.2556C1.06801 3.44516 0.993287 3.67846 1.00047 3.9165L1.44847 9.6665C1.61002 11.7515 2.33898 13.7525 3.55639 15.4528C4.7738 17.1531 6.43325 18.4878 8.35497 19.3125L9.27147 19.75Z" stroke="#4F46E5" stroke-width="2" stroke-linecap="round" stroke-linejoin="round"/>
</g>
</svg>
