<svg width="20" height="16" viewBox="0 0 20 16" fill="none" xmlns="http://www.w3.org/2000/svg">
<path id="Vector" d="M9.99975 0C8.2444 4.45921e-05 6.51999 0.46214 4.99984 1.33984C3.47968 2.21754 2.21734 3.47993 1.33968 5.00011C0.462029 6.52029 -1.11483e-05 8.24472 2.01746e-10 10.0001C1.11487e-05 11.7554 0.462073 13.4798 1.33975 15C1.47235 15.2307 1.69119 15.3993 1.94812 15.4687C2.20504 15.5381 2.47901 15.5026 2.70975 15.37C2.94048 15.2374 3.10909 15.0186 3.17848 14.7616C3.24787 14.5047 3.21235 14.2307 3.07975 14C2.37029 12.7865 1.99747 11.4057 1.99975 10C2.00022 8.77318 2.28285 7.56291 2.82577 6.46276C3.36869 5.36262 4.15736 4.40208 5.13079 3.65541C6.10423 2.90875 7.23635 2.39597 8.43961 2.15672C9.64287 1.91747 10.885 1.95816 12.0701 2.27565C13.2551 2.59313 14.3512 3.17891 15.2737 3.98768C16.1962 4.79646 16.9203 5.80656 17.39 6.93987C17.8598 8.07319 18.0626 9.29937 17.9828 10.5236C17.903 11.7478 17.5427 12.9373 16.9297 14C16.8636 14.1141 16.8207 14.2402 16.8036 14.371C16.7864 14.5018 16.7952 14.6347 16.8296 14.762C16.864 14.8893 16.9233 15.0086 17.0039 15.113C17.0846 15.2173 17.1852 15.3047 17.2997 15.37C17.5294 15.5004 17.8012 15.5346 18.056 15.4653C18.3108 15.396 18.5278 15.2287 18.6597 15C19.5374 13.4798 19.9995 11.7554 19.9995 10.0001C19.9995 8.24472 19.5375 6.52029 18.6598 5.00011C17.7822 3.47993 16.5198 2.21754 14.9997 1.33984C13.4795 0.46214 11.7551 4.45921e-05 9.99975 0ZM12.8397 5.76L11.2897 7.3C10.8886 7.10183 10.4471 6.99916 9.99975 7C9.4064 7 8.82638 7.17595 8.33304 7.50559C7.83969 7.83524 7.45517 8.30377 7.22811 8.85195C7.00104 9.40013 6.94163 10.0033 7.05739 10.5853C7.17315 11.1672 7.45887 11.7018 7.87843 12.1213C8.29798 12.5409 8.83253 12.8266 9.41448 12.9424C9.99642 13.0581 10.5996 12.9987 11.1478 12.7716C11.696 12.5446 12.1645 12.1601 12.4942 11.6667C12.8238 11.1734 12.9997 10.5933 12.9997 10C12.9991 9.55599 12.8964 9.11808 12.6997 8.72L14.2497 7.18C14.3435 7.08704 14.4179 6.97644 14.4686 6.85458C14.5194 6.73272 14.5455 6.60201 14.5455 6.47C14.5455 6.33799 14.5194 6.20728 14.4686 6.08542C14.4179 5.96356 14.3435 5.85296 14.2497 5.76C14.0624 5.57375 13.8089 5.46921 13.5447 5.46921C13.2806 5.46921 13.0271 5.57375 12.8397 5.76ZM9.99975 11C9.73453 11 9.48018 10.8946 9.29264 10.7071C9.1051 10.5196 8.99975 10.2652 8.99975 10C8.99975 9.73478 9.1051 9.48043 9.29264 9.29289C9.48018 9.10536 9.73453 9 9.99975 9C10.2607 8.99843 10.5119 9.09891 10.6997 9.28C10.7954 9.37379 10.8713 9.48586 10.9228 9.60954C10.9744 9.73323 11.0005 9.86601 10.9997 10C10.9997 10.2652 10.8944 10.5196 10.7069 10.7071C10.5193 10.8946 10.265 11 9.99975 11Z" fill="#4F46E5"/>
</svg>
