<svg width="431" height="230" viewBox="0 0 431 230" fill="none" xmlns="http://www.w3.org/2000/svg">
<path d="M93.8829 0.486503C127.568 0.486503 153.429 6.46284 171.467 18.4155C189.504 30.1509 198.523 49.4925 198.523 76.4403C198.523 103.606 189.396 123.273 171.141 135.443C152.886 147.396 126.807 153.372 92.9049 153.372H76.9318V229H26.0786V6.35418C37.162 4.18097 48.8973 2.65972 61.2846 1.79043C73.672 0.921147 84.538 0.486503 93.8829 0.486503ZM97.1427 43.8421C93.4482 43.8421 89.7538 43.9508 86.0593 44.1681C82.5821 44.3854 79.5396 44.6028 76.9318 44.8201V110.017H92.9049C110.508 110.017 123.765 107.626 132.675 102.845C141.585 98.0638 146.04 89.1537 146.04 76.1144C146.04 69.812 144.845 64.5963 142.454 60.4672C140.281 56.3381 137.021 53.0783 132.675 50.6877C128.546 48.0799 123.439 46.3413 117.354 45.472C111.269 44.3854 104.532 43.8421 97.1427 43.8421ZM235.866 229V3.09437H387.122V45.798H286.719V93.0654H376.038V135.769H286.719V229H235.866Z" fill="#4F46E5"/>
<path d="M430.419 198.595C430.419 202.942 429.549 207.071 427.811 210.983C426.29 214.677 424.116 217.937 421.291 220.762C418.466 223.37 415.097 225.435 411.186 226.956C407.491 228.694 403.579 229.564 399.45 229.564C395.104 229.564 391.083 228.694 387.389 226.956C383.695 225.435 380.435 223.37 377.61 220.762C374.784 217.937 372.502 214.677 370.764 210.983C369.243 207.071 368.482 202.942 368.482 198.595C368.482 194.249 369.243 190.229 370.764 186.534C372.502 182.622 374.784 179.362 377.61 176.755C380.435 173.929 383.695 171.756 387.389 170.235C391.083 168.496 395.104 167.627 399.45 167.627C403.579 167.627 407.491 168.496 411.186 170.235C415.097 171.756 418.466 173.929 421.291 176.755C424.116 179.362 426.29 182.622 427.811 186.534C429.549 190.229 430.419 194.249 430.419 198.595Z" fill="#4F46E5"/>
</svg>
