<svg width="91" height="24" viewBox="0 0 91 24" fill="none" xmlns="http://www.w3.org/2000/svg">
<path d="M7.36654 0.20166C10.7272 0.20166 13.3074 0.79791 15.1069 1.99041C16.9065 3.16123 17.8063 5.09091 17.8063 7.77946C17.8063 10.4897 16.8957 12.4519 15.0744 13.6661C13.2532 14.8586 10.6513 15.4548 7.26897 15.4548H5.67535V23.0001H0.601807V0.78707C1.70758 0.570252 2.8784 0.418479 4.11426 0.331751C5.35013 0.245024 6.43422 0.20166 7.36654 0.20166ZM7.69176 4.52718C7.32317 4.52718 6.95458 4.53803 6.58599 4.55971C6.23908 4.58139 5.93554 4.60307 5.67535 4.62475V11.1293H7.26897C9.0252 11.1293 10.3478 10.8908 11.2367 10.4138C12.1257 9.9368 12.5702 9.04785 12.5702 7.74694C12.5702 7.11816 12.4509 6.5978 12.2124 6.18584C11.9956 5.77389 11.6704 5.44866 11.2367 5.21016C10.8248 4.94998 10.3153 4.77653 9.70817 4.6898C9.10108 4.58139 8.42895 4.52718 7.69176 4.52718Z" fill="#4F46E5"/>
<path d="M21.532 23.0001V0.461843H36.6225V4.72232H26.6055V9.43812H35.5167V13.6986H26.6055V23.0001H21.532Z" fill="#4F46E5"/>
<path d="M39.8819 23.0001V0.234182H43.9798V23.0001H39.8819Z" fill="#4F46E5"/>
<path d="M55.8709 23.4554C54.2664 23.4554 52.8463 23.1194 51.6104 22.4472C50.3962 21.7534 49.4422 20.7886 48.7484 19.5527C48.0763 18.2951 47.7402 16.8208 47.7402 15.1296V14.7393C47.7402 13.0481 48.0763 11.5846 48.7484 10.3488C49.4206 9.09121 50.3637 8.12637 51.5779 7.45423C52.7921 6.76041 54.2014 6.4135 55.8059 6.4135C57.3886 6.4135 58.7654 6.77125 59.9362 7.48675C61.1071 8.18057 62.0177 9.15625 62.6681 10.4138C63.3186 11.6497 63.6438 13.0915 63.6438 14.7393V16.1378H51.9031C51.9465 17.2436 52.3584 18.1434 53.139 18.8372C53.9195 19.531 54.8735 19.8779 56.001 19.8779C57.1501 19.8779 57.9957 19.6286 58.5378 19.1299C59.0798 18.6312 59.4918 18.0783 59.7736 17.4712L63.1235 19.2275C62.8199 19.7912 62.3754 20.4091 61.79 21.0813C61.2263 21.7317 60.4674 22.2954 59.5134 22.7724C58.5594 23.2278 57.3453 23.4554 55.8709 23.4554ZM51.9356 13.0807H59.4809C59.3942 12.1483 59.0148 11.4003 58.3426 10.8366C57.6922 10.2729 56.8357 9.99101 55.7733 9.99101C54.6676 9.99101 53.7894 10.2729 53.139 10.8366C52.4885 11.4003 52.0874 12.1483 51.9356 13.0807Z" fill="#4F46E5"/>
<path d="M78.2514 6.86882H82.772L78.8693 14.4466V15.032L82.9997 23.0001H78.2839L75.2593 16.6907H74.6739L71.6493 23.0001H66.9335L71.0639 15.032V14.4466L67.1286 6.86882H71.6818L74.6739 12.788H75.2593L78.2514 6.86882Z" fill="#4F46E5"/>
<path d="M90.9932 20.3658C90.9932 20.7994 90.9065 21.2114 90.733 21.6016C90.5812 21.9702 90.3644 22.2954 90.0826 22.5773C89.8007 22.8375 89.4646 23.0435 89.0744 23.1952C88.7058 23.3687 88.3155 23.4554 87.9035 23.4554C87.4699 23.4554 87.0688 23.3687 86.7002 23.1952C86.3316 23.0435 86.0064 22.8375 85.7245 22.5773C85.4426 22.2954 85.215 21.9702 85.0415 21.6016C84.8898 21.2114 84.8139 20.7994 84.8139 20.3658C84.8139 19.9321 84.8898 19.531 85.0415 19.1624C85.215 18.7721 85.4426 18.4469 85.7245 18.1867C86.0064 17.9049 86.3316 17.6881 86.7002 17.5363C87.0688 17.3628 87.4699 17.2761 87.9035 17.2761C88.3155 17.2761 88.7058 17.3628 89.0744 17.5363C89.4646 17.6881 89.8007 17.9049 90.0826 18.1867C90.3644 18.4469 90.5812 18.7721 90.733 19.1624C90.9065 19.531 90.9932 19.9321 90.9932 20.3658Z" fill="#4F46E5"/>
</svg>
